<?xml version="1.0" encoding="UTF-8"?>
<svg version="1.1" xmlns="http://www.w3.org/2000/svg" width="500" height="500">
<path d="M0 0 C165 0 330 0 500 0 C500 165 500 330 500 500 C335 500 170 500 0 500 C0 335 0 170 0 0 Z " fill="#FEFEFE" transform="translate(0,0)"/>
<path d="M0 0 C1.08667969 -0.01740234 1.08667969 -0.01740234 2.1953125 -0.03515625 C7.47790984 -0.00591678 7.47790984 -0.00591678 9.70792103 1.62109852 C11.34875543 3.84840965 11.37035006 5.08453201 11.36076355 7.83586121 C11.36488754 8.74871384 11.36901154 9.66156647 11.3732605 10.6020813 C11.36247467 11.60117523 11.35168884 12.60026917 11.34057617 13.62963867 C11.34123329 15.21037422 11.34123329 15.21037422 11.34190369 16.82304382 C11.33981035 20.31320597 11.31645309 23.80289031 11.29296875 27.29296875 C11.28737475 29.71006508 11.28310373 32.1271648 11.28010559 34.54426575 C11.26864147 40.91150271 11.23916059 47.27853494 11.20599365 53.64569092 C11.17532665 60.1407189 11.16160745 66.63577989 11.14648438 73.13085938 C11.11429258 85.87899368 11.06365238 98.62698596 11 111.375 C10.40832031 110.88749268 9.81664062 110.39998535 9.20703125 109.89770508 C6.09967405 107.75383485 3.73556407 108.01105685 0 108.0625 C-1.216875 108.06636719 -2.43375 108.07023437 -3.6875 108.07421875 C-6.81401149 108.35811189 -8.32190894 108.90941613 -11 110.375 C-11.07005235 96.4757822 -11.12277022 82.57659173 -11.15543652 68.6772337 C-11.17111233 62.22364377 -11.19238571 55.77017219 -11.22631836 49.31665039 C-11.25884324 43.09212387 -11.27683857 36.86771138 -11.28463173 30.64310646 C-11.29018759 28.26477067 -11.30103637 25.88644133 -11.31719017 23.50815392 C-11.33887281 20.18457783 -11.34197073 16.86147688 -11.34057617 13.5378418 C-11.351362 12.5480986 -11.36214783 11.55835541 -11.3732605 10.53862 C-11.36913651 9.63418152 -11.36501251 8.72974304 -11.36076355 7.79789734 C-11.36352893 7.01160792 -11.36629431 6.22531851 -11.36914349 5.41520214 C-10.27377438 -0.63874292 -5.06839793 -0.08116651 0 0 Z " fill="#FFCE6F" transform="translate(275,192.625)"/>
<path d="M0 0 C1.97806641 -0.02900391 1.97806641 -0.02900391 3.99609375 -0.05859375 C7.5625 0.4375 7.5625 0.4375 9.75701904 1.82623291 C12.57994834 5.90903552 12.0873222 9.86437777 12.01660156 14.71386719 C12.01718567 15.75808334 12.01776978 16.8022995 12.01837158 17.87815857 C12.01558428 21.33056854 11.98446052 24.7821158 11.953125 28.234375 C11.94566494 30.62761971 11.9399709 33.02087053 11.93597412 35.41412354 C11.92069944 41.71401831 11.88140123 48.01354438 11.8371582 54.31329346 C11.7962454 60.74136365 11.7779716 67.1694934 11.7578125 73.59765625 C11.71490925 86.21109483 11.64740385 98.82427781 11.5625 111.4375 C10.9025 111.1075 10.2425 110.7775 9.5625 110.4375 C9.5625 109.7775 9.5625 109.1175 9.5625 108.4375 C6.97888482 108.38342433 4.39640745 108.343793 1.8125 108.3125 C1.08289063 108.29574219 0.35328125 108.27898437 -0.3984375 108.26171875 C-4.35822996 108.22572064 -7.0021681 108.50596125 -10.4375 110.4375 C-10.50755235 96.5382822 -10.56027022 82.63909173 -10.59293652 68.7397337 C-10.60861233 62.28614377 -10.62988571 55.83267219 -10.66381836 49.37915039 C-10.69634324 43.15462387 -10.71433857 36.93021138 -10.72213173 30.70560646 C-10.72768759 28.32727067 -10.73853637 25.94894133 -10.75469017 23.57065392 C-10.77637281 20.24707783 -10.77947073 16.92397688 -10.77807617 13.6003418 C-10.788862 12.6105986 -10.79964783 11.62085541 -10.8107605 10.60112 C-10.80663651 9.69668152 -10.80251251 8.79224304 -10.79826355 7.86039734 C-10.80102893 7.07410792 -10.80379431 6.28781851 -10.80664349 5.47770214 C-9.7545762 -0.33692012 -4.93552896 -0.05205256 0 0 Z " fill="#FFCE6F" transform="translate(224.4375,192.5625)"/>
<path d="M0 0 C8.4570959 -0.30753076 16.33492976 0.26493956 23 6 C27.79900166 12.36351135 27.5581589 18.28758739 27.5625 26.0625 C27.27948623 37.51719214 27.27948623 37.51719214 33 47 C35.31 47.33 37.62 47.66 40 48 C40 52.95 40 57.9 40 63 C38.741875 63.2475 37.48375 63.495 36.1875 63.75 C33.31027709 64.46676401 32.20347975 64.79652025 30.0625 66.9375 C28.19029054 70.57178895 27.8607559 73.48632452 27.7890625 77.515625 C27.76070313 78.60230469 27.73234375 79.68898438 27.703125 80.80859375 C27.65139994 83.08708256 27.60702472 85.3657511 27.5703125 87.64453125 C27.35096955 95.38550953 26.6945291 100.63183863 21.75 106.8125 C15.22852091 112.00004019 7.93869429 111.17839762 0 111 C0 106.38 0 101.76 0 97 C1.629375 96.71125 3.25875 96.4225 4.9375 96.125 C7.65092125 95.68931344 7.65092125 95.68931344 10 95 C11.56182992 91.87634016 11.29182025 88.49869812 11.4375 85.0625 C12.44376122 65.90320576 12.44376122 65.90320576 18 59 C18.5775 58.21625 19.155 57.4325 19.75 56.625 C20.1625 56.08875 20.575 55.5525 21 55 C20.60167969 54.59910156 20.20335937 54.19820312 19.79296875 53.78515625 C19.26316406 53.21667969 18.73335938 52.64820313 18.1875 52.0625 C17.66542969 51.51722656 17.14335937 50.97195312 16.60546875 50.41015625 C11.9234921 43.38149543 11.50305652 35.66409721 11.3125 27.4375 C11.26125977 25.92446289 11.26125977 25.92446289 11.20898438 24.38085938 C11.12736719 21.92068432 11.05794324 19.46082691 11 17 C7.36383344 15.0210244 4.11574371 14.4748935 0 14 C0 9.38 0 4.76 0 0 Z " fill="#ED5E31" transform="translate(297,196)"/>
<path d="M0 0 C1.27230469 0.00902344 2.54460937 0.01804688 3.85546875 0.02734375 C5.31919922 0.04474609 5.31919922 0.04474609 6.8125 0.0625 C6.8125 4.3525 6.8125 8.6425 6.8125 13.0625 C5.348125 13.371875 3.88375 13.68125 2.375 14 C-0.69199556 14.47409649 -0.69199556 14.47409649 -3.1875 16.0625 C-3.37913771 17.66160609 -3.51114268 19.26794686 -3.6171875 20.875 C-3.69066406 21.86886719 -3.76414063 22.86273438 -3.83984375 23.88671875 C-3.98606332 25.97227155 -4.12686167 28.05821291 -4.26171875 30.14453125 C-5.03246384 40.32097914 -6.83548842 47.71048842 -14.1875 55.0625 C-13.424375 55.805 -12.66125 56.5475 -11.875 57.3125 C-6.58655634 62.72393072 -5.13805175 66.41283104 -4.9765625 73.96875 C-4.93402344 75.33193359 -4.93402344 75.33193359 -4.890625 76.72265625 C-4.83854713 78.61568675 -4.79427404 80.50894809 -4.7578125 82.40234375 C-4.61136935 89.2753172 -4.61136935 89.2753172 -1.1875 95.0625 C0.83376924 95.86886809 0.83376924 95.86886809 3 95.875 C4.8871875 95.9678125 4.8871875 95.9678125 6.8125 96.0625 C6.8125 100.6825 6.8125 105.3025 6.8125 110.0625 C-0.67275991 110.3001273 -8.42669926 110.53412533 -14.625 105.75 C-19.83638787 100.28439809 -20.19438699 93.92066675 -20.36328125 86.62109375 C-20.38712891 85.62529297 -20.41097656 84.62949219 -20.43554688 83.60351562 C-20.47859236 81.53081035 -20.50980101 79.45782616 -20.52929688 77.38476562 C-20.68522111 71.38187683 -20.68522111 71.38187683 -22.99609375 65.9296875 C-25.85534666 63.49346131 -28.5495322 62.83207011 -32.1875 62.0625 C-32.1875 57.4425 -32.1875 52.8225 -32.1875 48.0625 C-29.94140625 47.31380208 -27.6953125 46.56510417 -25.44921875 45.81640625 C-21.8210138 43.00282417 -21.07607761 39.46154778 -20.1875 35.0625 C-19.7048582 30.15585624 -19.70433874 25.25251937 -19.66015625 20.32617188 C-19.51908432 14.03187446 -19.12203982 9.27979496 -14.6875 4.41796875 C-9.5707001 0.43379383 -6.40487905 -0.05876036 0 0 Z " fill="#ED5D30" transform="translate(195.1875,196.9375)"/>
<path d="M0 0 C1.09924805 0.00483398 1.09924805 0.00483398 2.22070312 0.00976562 C2.94966797 -0.00634766 3.67863281 -0.02246094 4.4296875 -0.0390625 C9.68210183 -0.04387681 9.68210183 -0.04387681 11.99458313 1.36470032 C13.98837915 4.39351093 13.67504964 7.5019694 13.6237793 11.0065918 C13.62443642 12.17767738 13.62443642 12.17767738 13.62510681 13.37242126 C13.62301637 15.95361315 13.59967373 18.53415592 13.57617188 21.11523438 C13.57057682 22.90456284 13.56630629 24.69389589 13.56330872 26.48323059 C13.5518528 31.19335614 13.52237924 35.90320429 13.48919678 40.61322021 C13.45851196 45.41919197 13.44480678 50.22520853 13.4296875 55.03125 C13.39751023 64.46171044 13.34630487 73.89196497 13.28320312 83.32226562 C11.79820312 82.82726562 11.79820312 82.82726562 10.28320312 82.32226562 C7.7681049 82.1749851 5.29874677 82.09143167 2.78320312 82.07226562 C2.10644531 82.05164063 1.4296875 82.03101563 0.73242188 82.00976562 C-3.19065894 81.90146789 -3.19065894 81.90146789 -6.43359375 83.84277344 C-7.0687793 84.57512207 -7.0687793 84.57512207 -7.71679688 85.32226562 C-7.76306817 74.53496937 -7.79863951 63.74769659 -7.82042122 52.96032143 C-7.83087354 47.95170215 -7.84505908 42.9431506 -7.86767578 37.93457031 C-7.88935262 33.1040823 -7.90135458 28.27365956 -7.90655136 23.44312668 C-7.91025642 21.59706977 -7.91749112 19.75101657 -7.92825699 17.90498734 C-7.94270344 15.32606438 -7.94477771 12.74741371 -7.94384766 10.16845703 C-7.95103821 9.39953629 -7.95822876 8.63061554 -7.96563721 7.83839417 C-7.93962273 1.20427305 -6.63700067 0.06704041 0 0 Z " fill="#F6F6E9" transform="translate(247.716796875,217.677734375)"/>
</svg>
